<?xml version="1.0" encoding="UTF-8" standalone="no" ?>
<!DOCTYPE svg PUBLIC "-//W3C//DTD SVG 1.1//EN" "http://www.w3.org/Graphics/SVG/1.1/DTD/svg11.dtd">
<svg xmlns="http://www.w3.org/2000/svg" xmlns:xlink="http://www.w3.org/1999/xlink" version="1.1" width="500" height="500" viewBox="0 0 500 500" xml:space="preserve">
<desc>Created with Fabric.js 4.5.0</desc>
<defs>
</defs>
<g transform="matrix(1 0 0 1 250 270)"  >
<rect style="stroke: rgb(125,32,94); stroke-width: 1; stroke-dasharray: none; stroke-linecap: butt; stroke-dashoffset: 0; stroke-linejoin: miter; stroke-miterlimit: 4; fill: rgb(125,32,94); fill-rule: nonzero; opacity: 1;"  x="-153.875" y="-135" rx="0" ry="0" width="307.75" height="270" />
</g>
<g transform="matrix(1 0 0 1 244.5 185.98)"  >
<g style=""   >
		<g transform="matrix(1 0 0 1 0 11.52)"  >
<polygon style="stroke: rgb(209,32,94); stroke-width: 1; stroke-dasharray: none; stroke-linecap: butt; stroke-dashoffset: 0; stroke-linejoin: miter; stroke-miterlimit: 4; fill: rgb(209,32,94); fill-rule: nonzero; opacity: 1;"  points="-108.5,51.02 -108.5,89.5 -173.5,89.5 -173.5,-45.69 -118.5,-89.5 173.5,-89.5 173.5,-28.5 -108.5,-28.5 -108.5,51.02 " />
</g>
		<g transform="matrix(1 0 0 1 25.5 -27.73)"  >
<polygon style="stroke: rgb(209,32,94); stroke-width: 1; stroke-dasharray: none; stroke-linecap: butt; stroke-dashoffset: 0; stroke-linejoin: miter; stroke-miterlimit: 4; fill: rgb(209,32,94); fill-rule: nonzero; opacity: 1;"  points="148,-19.77 148,29 147.78,28.84 135.7,37.75 110.58,37.75 98.5,28.84 86.42,37.75 61.32,37.75 49.23,28.84 37.15,37.75 12.05,37.75 -0.03,28.84 -12.12,37.75 -37.22,37.75 -49.31,28.84 -61.39,37.75 -86.49,37.75 -98.59,28.84 -110.67,37.75 -135.77,37.75 -147.86,28.84 -148,28.94 -148,-19.7 -147.87,-19.61 -123.24,-37.76 -98.61,-19.61 -73.97,-37.76 -49.32,-19.61 -24.7,-37.76 -0.07,-19.61 24.56,-37.76 49.21,-19.61 73.85,-37.76 98.49,-19.61 123.12,-37.76 147.77,-19.61 148,-19.77 " />
</g>
		<g transform="matrix(1 0 0 1 0 -72.24)"  >
<polygon style="stroke: rgb(209,32,94); stroke-width: 1; stroke-dasharray: none; stroke-linecap: butt; stroke-dashoffset: 0; stroke-linejoin: miter; stroke-miterlimit: 4; fill: rgb(209,32,94); fill-rule: nonzero; opacity: 1;"  points="173.5,-23.17 173.5,34 173.24,33.82 159.08,44.26 129.64,44.26 115.48,33.82 101.31,44.26 71.88,44.26 57.71,33.82 43.55,44.26 14.12,44.26 -0.04,33.82 -14.2,44.26 -43.63,44.26 -57.8,33.82 -71.97,44.26 -101.39,44.26 -115.58,33.82 -129.74,44.26 -159.17,44.26 -173.5,39.26 -173.5,33.93 -86.72,-44.26 -57.82,-22.98 -28.96,-44.26 -0.08,-22.98 28.8,-44.26 57.69,-22.98 86.57,-44.26 115.45,-22.98 144.33,-44.26 173.23,-22.98 173.5,-23.17 " />
</g>
		<g transform="matrix(1 0 0 1 -141 91.76)"  >
<polygon style="stroke: rgb(209,32,94); stroke-width: 1; stroke-dasharray: none; stroke-linecap: butt; stroke-dashoffset: 0; stroke-linejoin: miter; stroke-miterlimit: 4; fill: rgb(209,32,94); fill-rule: nonzero; opacity: 1;"  points="32.5,-13.09 32.5,19.15 32.18,18.91 24.27,24.74 7.81,24.74 -0.12,18.91 -8.03,24.74 -24.49,24.74 -32.41,18.91 -32.5,18.97 -32.5,-12.91 -32.42,-12.85 -16.27,-24.74 -0.13,-12.85 16.02,-24.74 32.17,-12.85 32.5,-13.09 " />
</g>
</g>
</g>
<g transform="matrix(1 0 0 1 305 241.5)"  >
<g style=""   >
		<g transform="matrix(1 0 0 1 -47.5 -0.5)"  >
<rect style="stroke: rgb(125,244,94); stroke-width: 1; stroke-dasharray: none; stroke-linecap: butt; stroke-dashoffset: 0; stroke-linejoin: miter; stroke-miterlimit: 4; fill: rgb(125,244,94); fill-rule: nonzero; opacity: 1;"  x="-25.5" y="-7" rx="0" ry="0" width="51" height="14" />
</g>
		<g transform="matrix(1 0 0 1 47.5 0.5)"  >
<rect style="stroke: rgb(125,244,94); stroke-width: 1; stroke-dasharray: none; stroke-linecap: butt; stroke-dashoffset: 0; stroke-linejoin: miter; stroke-miterlimit: 4; fill: rgb(125,244,94); fill-rule: nonzero; opacity: 1;"  x="-25.5" y="-7" rx="0" ry="0" width="51" height="14" />
</g>
</g>
</g>
<g transform="matrix(1 0 0 1 280.01 319.15)"  >
<path style="stroke: rgb(125,244,94); stroke-width: 1; stroke-dasharray: none; stroke-linecap: butt; stroke-dashoffset: 0; stroke-linejoin: miter; stroke-miterlimit: 4; fill: rgb(125,244,94); fill-rule: nonzero; opacity: 1;"  transform=" translate(-280.01, -299.16)" d="M 304.15 315.25 C 293.15 315.25 281.28 308.17 272.07 302.67 C 270.74 301.88 269.48 301.13 268.29 300.44 C 262.59000000000003 297.14 258.03000000000003 296.28 254.74 297.86 C 248.93 300.66 246.31 310.86 245.92000000000002 313.45 L 232.08 311.39 C 232.38000000000002 309.39 235.38000000000002 291.65 248.66000000000003 285.25 C 256.39000000000004 281.53 265.35 282.56 275.31 288.32 L 279.25 290.65 C 287.41 295.53 301.07 303.65 307.54 300.56 C 311.54 298.56 313.32 291.56 314.06 286.08 L 327.94 287.91999999999996 C 326.21 300.91999999999996 321.39 309.41999999999996 313.63 313.16999999999996 C 310.66915428925705 314.57482303642274 307.4270148306799 315.28617852944393 304.15 315.25 Z" stroke-linecap="round" />
</g>
</svg>