<?xml version="1.0" encoding="UTF-8" standalone="no" ?>
<!DOCTYPE svg PUBLIC "-//W3C//DTD SVG 1.1//EN" "http://www.w3.org/Graphics/SVG/1.1/DTD/svg11.dtd">
<svg xmlns="http://www.w3.org/2000/svg" xmlns:xlink="http://www.w3.org/1999/xlink" version="1.1" width="500" height="500" viewBox="0 0 500 500" xml:space="preserve">
<desc>Created with Fabric.js 4.5.0</desc>
<defs>
</defs>
<g transform="matrix(1 0 0 1 250.07 270)"  >
<path style="stroke: rgb(140,244,236); stroke-width: 1; stroke-dasharray: none; stroke-linecap: butt; stroke-dashoffset: 0; stroke-linejoin: miter; stroke-miterlimit: 4; fill: rgb(140,244,236); fill-rule: nonzero; opacity: 1;"  transform=" translate(-250.06, -250)" d="M 404 314 L 404 354.56 C 404 371.3715477848493 390.3715477848493 385 373.56 385 L 187.44 385 C 170.62845221515065 385 157 371.3715477848493 157 354.56 L 157 344.44 C 157 327.6284522151507 143.37154778484935 314 126.56 314 L 126.56 314 C 109.75235759083652 313.9944784351787 96.12999909304122 300.3676433161222 96.13 283.56 L 96.13 145.33 C 96.12999999999998 128.57920353763205 109.70920353763202 115 126.46 115 L 373.55 115 C 390.30079646236794 115 403.88 128.57920353763203 403.88 145.32999999999996 L 403.88 314 Z" stroke-linecap="round" />
</g>
<g transform="matrix(1 0 0 1 250 142.08)"  >
<path style="stroke: rgb(0,187,242); stroke-width: 1; stroke-dasharray: none; stroke-linecap: butt; stroke-dashoffset: 0; stroke-linejoin: miter; stroke-miterlimit: 4; fill: rgb(0,187,242); fill-rule: nonzero; opacity: 1;"  transform=" translate(-250, -122.08)" d="M 430.1 184.56 C 401.79 192.86 397.5 163 368 163 C 338.5 163 338.5 185 309 185 C 279.5 185 279.5 163 250 163 C 220.5 163 220.5 185 191 185 C 161.5 185 161.49 163 132 163 C 102.50999999999999 163 98.21000000000001 192.86 69.9 184.56 C 61.6 182.12 84 165.35 84 156.69 C 84 148.03 62 148 62 139.39 C 62 130.77999999999997 84 130.73999999999998 84 122.08999999999999 C 84 113.44 62 113.42999999999999 62 104.77999999999999 C 62 96.12999999999998 84 96.11999999999999 84 87.46999999999998 C 84 78.81999999999998 61.6 62 69.9 59.6 C 98.21000000000001 51.3 102.5 81.16 132 81.16 C 161.5 81.16 161.5 59.16 191 59.16 C 220.5 59.16 220.5 81.16 250 81.16 C 279.5 81.16 279.5 59.16 309 59.16 C 338.5 59.16 338.51 81.16 368 81.16 C 397.49 81.16 401.79 51.3 430.1 59.6 C 438.4 62 416 78.81 416 87.46 C 416 96.10999999999999 438 96.11 438 104.75999999999999 C 438 113.40999999999998 416 113.41999999999999 416 122.07 C 416 130.72 438 130.72 438 139.38 C 438 148.04 414.14 151.16 416.37 159.51999999999998 C 420.25 174.06 438.4 182.12 430.1 184.56 Z" stroke-linecap="round" />
</g>
<g transform="matrix(1 0 0 1 302 237.95)"  >
<g style=""   >
		<g transform="matrix(1 0 0 1 -52.06 -0.04)"  >
<path style="stroke: rgb(0,122,94); stroke-width: 1; stroke-dasharray: none; stroke-linecap: butt; stroke-dashoffset: 0; stroke-linejoin: miter; stroke-miterlimit: 4; fill: rgb(0,122,94); fill-rule: nonzero; opacity: 1;"  transform=" translate(-249.94, -217.91)" d="M 286 227 C 284.3897160333319 228.05732511436372 282.6819292082302 228.95809894956443 280.9 229.69 C 279.2110841240234 230.41332445631852 277.4814915537451 231.03771405215258 275.71999999999997 231.56 C 272.30550269658886 232.56041424390543 268.8027148185305 233.230163360169 265.26 233.56 C 258.24550028460925 234.2444917086483 251.16552208714407 233.71679147032793 244.33 232 C 240.81863052818156 231.1336908636244 237.4018908188916 229.92108324130774 234.13000000000002 228.38 C 230.70708126742028 226.78944271763632 227.49842955833503 224.77353588470316 224.58 222.38 C 221.48428187160485 219.9126985232287 218.85023301405892 216.9163833060974 216.8 213.53 C 216.33 212.61 215.8 211.77 215.43 210.83 C 215.04771659602872 209.8944936475243 214.71393986764224 208.939892204339 214.43 207.97 C 214.19680412055376 206.98081478928918 214.0198537617667 205.97920898483417 213.9 204.97 C 213.8496581869563 203.9692029561322 213.87975489255268 202.9659794362531 213.99 201.97 C 214.94 202.41 215.76000000000002 202.85 216.55 203.24 L 218.96 204.24 L 221.28 205.03 C 222.03 205.27 222.8 205.49 223.53 205.69 C 226.53 206.49 229.35 207.07999999999998 232.2 207.69 L 240.79 209.51 C 243.66 210.14999999999998 246.56 210.82999999999998 249.48999999999998 211.57 C 255.55827899607095 213.0836796939442 261.5292279133345 214.96379392236662 267.37 217.19999999999996 C 270.497415644134 218.40668679634015 273.56138006170687 219.7717864115769 276.55 221.28999999999996 C 278.1 222.09 279.66 222.91 281.22 223.84 C 282.8690673591562 224.80650046657718 284.46472509829863 225.86137043638684 286 227 Z" stroke-linecap="round" />
</g>
		<g transform="matrix(1 0 0 1 52.06 0.02)"  >
<path style="stroke: rgb(0,122,94); stroke-width: 1; stroke-dasharray: none; stroke-linecap: butt; stroke-dashoffset: 0; stroke-linejoin: miter; stroke-miterlimit: 4; fill: rgb(0,122,94); fill-rule: nonzero; opacity: 1;"  transform=" translate(-354.06, -217.97)" d="M 318 227 C 319.532974273149 225.87532137041546 321.12526928834194 224.83382022840246 322.77 223.88 C 324.33 222.95 325.89 222.13 327.44 221.32999999999998 C 330.4286199382931 219.81178641157692 333.49258435586603 218.44668679634015 336.62 217.23999999999998 C 342.4607720866655 215.00379392236664 348.4317210039291 213.12367969394415 354.50000000000006 211.60999999999996 C 357.43 210.86999999999998 360.33 210.19 363.2 209.54999999999998 L 371.78999999999996 207.73 C 374.64 207.10999999999999 377.49999999999994 206.51999999999998 380.46 205.73 C 381.19 205.53 381.96 205.31 382.71 205.07 L 385.03 204.28 L 387.44 203.28 C 388.23 202.89000000000001 389.05 202.45 390 202.01 C 390.1102451074473 203.00597943625309 390.1403418130437 204.00920295613219 390.09 205.01 C 389.97014623823327 206.01920898483417 389.7931958794462 207.02081478928918 389.56 208.01 C 389.27606013235777 208.979892204339 388.9422834039713 209.9344936475243 388.56 210.87 C 388.17 211.81 387.66 212.65 387.19 213.57 C 385.1397669859411 216.9563833060974 382.5057181283952 219.9526985232287 379.41 222.42 C 376.491570441665 224.81353588470316 373.28291873257973 226.82944271763628 369.86 228.42 C 366.58810918110845 229.96108324130776 363.1713694718185 231.17369086362436 359.66 232.03999999999996 C 352.8279629231398 233.7769055094447 345.7479393088501 234.3249054260787 338.73 233.66 C 335.1872851814695 233.330163360169 331.68449730341115 232.66041424390542 328.27000000000004 231.66 C 326.5085084462549 231.13771405215257 324.7789158759766 230.51332445631851 323.09000000000003 229.79 C 321.3076604774453 229.02564253615108 319.6031174891076 228.0913252596359 318 227 Z" stroke-linecap="round" />
</g>
</g>
</g>
<g transform="matrix(1 0 0 1 300 351)"  >
<path style="stroke: rgb(0,122,94); stroke-width: 1; stroke-dasharray: none; stroke-linecap: butt; stroke-dashoffset: 0; stroke-linejoin: miter; stroke-miterlimit: 4; fill: rgb(0,122,94); fill-rule: nonzero; opacity: 1;"  transform=" translate(-300, -331)" d="M 333.75 345.5 L 266.25 345.5 C 256.4476143972254 345.48896903112393 248.50551005198963 337.542390260905 248.5 327.74 L 248.5 323.5 C 248.5 319.6340067511845 251.63400675118444 316.5 255.5 316.5 C 259.3659932488155 316.5 262.5 319.6340067511844 262.5 323.5 L 262.5 327.74 C 262.4973432083282 328.73629333218634 262.8912581794991 329.69269153805794 263.5948077649324 330.39811725571906 C 264.2983573503656 331.1035429733801 265.25370312542475 331.5000035423952 266.25 331.5 L 333.75 331.5 C 334.74629687457525 331.5000035423952 335.7016426496344 331.1035429733801 336.4051922350676 330.39811725571906 C 337.1087418205009 329.69269153805794 337.5026567916718 328.73629333218634 337.5 327.74 L 337.5 323.5 C 337.5 319.6340067511845 340.6340067511845 316.5 344.5 316.5 C 348.3659932488155 316.5 351.5 319.6340067511844 351.5 323.5 L 351.5 327.74 C 351.49448994801037 337.542390260905 343.5523856027746 345.48896903112393 333.75 345.5 Z" stroke-linecap="round" />
</g>
</svg>