<?xml version="1.0" encoding="UTF-8" standalone="no" ?>
<!DOCTYPE svg PUBLIC "-//W3C//DTD SVG 1.1//EN" "http://www.w3.org/Graphics/SVG/1.1/DTD/svg11.dtd">
<svg xmlns="http://www.w3.org/2000/svg" xmlns:xlink="http://www.w3.org/1999/xlink" version="1.1" width="500" height="500" viewBox="0 0 500 500" xml:space="preserve">
<desc>Created with Fabric.js 4.5.0</desc>
<defs>
</defs>
<g transform="matrix(1 0 0 1 250 276.5)"  >
<polygon style="stroke: rgb(125,32,94); stroke-width: 1; stroke-dasharray: none; stroke-linecap: butt; stroke-dashoffset: 0; stroke-linejoin: miter; stroke-miterlimit: 4; fill: rgb(125,32,94); fill-rule: nonzero; opacity: 1;"  points="69,141.5 -71,102.5 -112,44.5 -153.88,15.5 -153.88,-141.5 153.88,-141.5 153.88,72.5 69,141.5 " />
</g>
<g transform="matrix(1 0 0 1 239 167.5)"  >
<polygon style="stroke: rgb(245,115,255); stroke-width: 1; stroke-dasharray: none; stroke-linecap: butt; stroke-dashoffset: 0; stroke-linejoin: miter; stroke-miterlimit: 4; fill: rgb(245,115,255); fill-rule: nonzero; opacity: 1;"  points="194,66.5 165,47.5 128,-12.5 91,10.5 -23.81,-20.5 -142.67,92.5 -194,49.5 -124,-75.5 9.96,-92.5 91,-48.5 125.69,-92.5 178.31,-72.5 194,66.5 " />
</g>
<g transform="matrix(1 0 0 1 298.02 244)"  >
<g style=""   >
		<g transform="matrix(1 0 0 1 -49.5 0)"  >
<path style="stroke: rgb(245,115,255); stroke-width: 1; stroke-dasharray: none; stroke-linecap: butt; stroke-dashoffset: 0; stroke-linejoin: miter; stroke-miterlimit: 4; fill: rgb(245,115,255); fill-rule: nonzero; opacity: 1;"  transform=" translate(-248.53, -224)" d="M 250 250 C 242.54 250 236.86 247.89 232.66 243.56 C 226.04999999999998 236.74 223.38 224.78 224 204.78 C 224.12150264496276 200.91400675118444 227.35400675118444 197.87849735503724 231.22 198 C 235.08599324881556 198.12150264496276 238.12150264496276 201.35400675118444 238 205.22 C 237.4 224.22 240.24 231.22 242.72 233.82 C 243.72 234.9 245.45 236 250 236 C 251.3195275687551 236.01411528457007 252.575409297028 235.4339126147832 253.42 234.42 C 256.63 231.05999999999997 259.78999999999996 221.64999999999998 259.01 205.32999999999998 C 258.8277460325558 201.46400675118443 261.8140067511844 198.18225396744415 265.68 198 C 269.54599324881553 197.81774603255582 272.8277460325558 200.80400675118443 273.01 204.67 C 273.51 215.17 272.95 234.25 263.57 244.07999999999998 C 260.07731225808595 247.8694344795457 255.15348188452282 250.0174872291031 250 250 Z" stroke-linecap="round" />
</g>
		<g transform="matrix(1 0 0 1 49.5 0)"  >
<path style="stroke: rgb(245,115,255); stroke-width: 1; stroke-dasharray: none; stroke-linecap: butt; stroke-dashoffset: 0; stroke-linejoin: miter; stroke-miterlimit: 4; fill: rgb(245,115,255); fill-rule: nonzero; opacity: 1;"  transform=" translate(-347.53, -224)" d="M 349 250 C 341.54 250 335.86 247.89 331.66 243.56 C 325.05 236.74 322.38000000000005 224.78 323 204.78 C 323.1215026449628 200.91400675118444 326.35400675118444 197.87849735503724 330.21999999999997 198 C 334.08599324881556 198.12150264496276 337.1215026449628 201.35400675118444 337 205.22 C 336.4 224.22 339.24 231.22 341.72 233.82 C 342.72 234.9 344.45000000000005 236 349 236 C 350.3195275687551 236.0141152845701 351.575409297028 235.4339126147832 352.42 234.42 C 355.63 231.05999999999997 358.79 221.64999999999998 358.01 205.32999999999998 C 357.8277460325558 201.46400675118443 360.8140067511844 198.18225396744415 364.68 198 C 368.54599324881553 197.81774603255582 371.8277460325558 200.80400675118443 372.01 204.67 C 372.51 215.17 371.95 234.25 362.57 244.07999999999998 C 359.07731225808595 247.8694344795457 354.1534818845228 250.0174872291031 349 250 Z" stroke-linecap="round" />
</g>
</g>
</g>
<g transform="matrix(1 0 0 1 282.02 325.99)"  >
<path style="stroke: rgb(245,115,255); stroke-width: 1; stroke-dasharray: none; stroke-linecap: butt; stroke-dashoffset: 0; stroke-linejoin: miter; stroke-miterlimit: 4; fill: rgb(245,115,255); fill-rule: nonzero; opacity: 1;"  transform=" translate(-282.01, -306)" d="M 313.5 340 C 312.8763251749139 339.9980515889457 312.25516567543804 339.9208263538757 311.65 339.77 L 248.64999999999998 323.77 C 245.7438128622694 323.0278164988364 243.55930373326694 320.625486680371 243.09585822696368 317.662046400629 C 242.63241272066043 314.698606120887 243.97916785725235 311.74403012872733 246.51999999999998 310.15 L 305.52 273.15 C 307.74696254975976 271.74568686811756 310.5471940134093 271.6118919813672 312.89790208564307 272.79748429306 C 315.24861015787684 273.9830766047528 316.80553291361605 276.314425753721 317 278.94 L 321 331.94 C 321.15299866519985 334.02349100212456 320.4312301734294 336.07655583449514 319.00809863488774 337.6059478612479 C 317.5849670963461 339.1353398880007 315.58909917142915 340.00282832476347 313.5 340 Z M 269.33 313.54 L 305.24 322.66 L 303 292.46 Z" stroke-linecap="round" />
</g>
</svg>