<?xml version="1.0" encoding="UTF-8" standalone="no" ?>
<!DOCTYPE svg PUBLIC "-//W3C//DTD SVG 1.1//EN" "http://www.w3.org/Graphics/SVG/1.1/DTD/svg11.dtd">
<svg xmlns="http://www.w3.org/2000/svg" xmlns:xlink="http://www.w3.org/1999/xlink" version="1.1" width="500" height="500" viewBox="0 0 500 500" xml:space="preserve">
<desc>Created with Fabric.js 4.5.0</desc>
<defs>
</defs>
<g transform="matrix(1 0 0 1 250 270)"  >
<polygon style="stroke: rgb(164,222,2); stroke-width: 1; stroke-dasharray: none; stroke-linecap: butt; stroke-dashoffset: 0; stroke-linejoin: miter; stroke-miterlimit: 4; fill: rgb(164,222,2); fill-rule: nonzero; opacity: 1;"  points="153.88,-135 153.88,79.83 98.69,135 -55.66,135 -153.88,54.09 -153.88,-135 153.88,-135 " />
</g>
<g transform="matrix(1 0 0 1 239.68 249.39)"  >
<path style="stroke: rgb(30,86,49); stroke-width: 1; stroke-dasharray: none; stroke-linecap: butt; stroke-dashoffset: 0; stroke-linejoin: miter; stroke-miterlimit: 4; fill: rgb(30,86,49); fill-rule: nonzero; opacity: 1;"  transform=" translate(-239.68, -229.39)" d="M 431 183 L 312.16 183 L 292 133 L 292 183 L 153 183 C 113.69 267.47 144.33 382 155.41 417.24 C 155.86387621931374 418.6958849313535 155.3228472231557 420.27807069611674 154.07255835318466 421.15121575704717 C 152.8222694832136 422.02436081797754 151.15054503623537 421.9874617356239 149.94 421.06 L 48 343 C 48 343 36 122 74 85 C 124.18 36.14 233.85 37 286 37 C 352 37 411.57 52.22 418 62 C 441 97 431 183 431 183 Z" stroke-linecap="round" />
</g>
<g transform="matrix(1 0 0 1 305 250)"  >
<g style=""   >
		<g transform="matrix(1 0 0 1 -56.25 0)"  >
<path style="stroke: rgb(76,154,42); stroke-width: 1; stroke-dasharray: none; stroke-linecap: butt; stroke-dashoffset: 0; stroke-linejoin: miter; stroke-miterlimit: 4; fill: rgb(76,154,42); fill-rule: nonzero; opacity: 1;"  transform=" translate(-248.75, -230)" d="M 262.5 250.75 C 260.6434333110973 250.75013395342222 258.8628578714517 250.01272392286194 257.55 248.7 L 230.05 221.2 C 227.31619048833758 218.46619048833756 227.31619048833758 214.0338095116624 230.05 211.29999999999998 C 232.78380951166244 208.56619048833755 237.2161904883376 208.56619048833755 239.95000000000002 211.29999999999998 L 267.45000000000005 238.79999999999998 C 269.4521990949146 240.80199478456538 270.05118821416437 243.81299810934559 268.96763351732625 246.42885237746984 C 267.8840788204882 249.04470664559406 265.3313926416808 250.75020430297823 262.50000000000006 250.74999999999997 Z" stroke-linecap="round" />
</g>
		<g transform="matrix(1 0 0 1 -55.75 0)"  >
<path style="stroke: rgb(76,154,42); stroke-width: 1; stroke-dasharray: none; stroke-linecap: butt; stroke-dashoffset: 0; stroke-linejoin: miter; stroke-miterlimit: 4; fill: rgb(76,154,42); fill-rule: nonzero; opacity: 1;"  transform=" translate(-249.25, -230)" d="M 235.5 250.75 C 232.66860735831924 250.75020430297826 230.11592117951187 249.0447066455941 229.03236648267378 246.42885237746987 C 227.94881178583572 243.8129981093456 228.54780090508547 240.8019947845654 230.55 238.8 L 258.05 211.3 C 260.7838095116624 208.56619048833758 265.2161904883376 208.56619048833758 267.95 211.3 C 270.68380951166245 214.03380951166244 270.68380951166245 218.4661904883376 267.95 221.20000000000002 L 240.45 248.70000000000002 C 239.13714212854828 250.01272392286194 237.35656668890272 250.75013395342222 235.5 250.75 Z" stroke-linecap="round" />
</g>
		<g transform="matrix(1 0 0 1 55.75 0)"  >
<path style="stroke: rgb(76,154,42); stroke-width: 1; stroke-dasharray: none; stroke-linecap: butt; stroke-dashoffset: 0; stroke-linejoin: miter; stroke-miterlimit: 4; fill: rgb(76,154,42); fill-rule: nonzero; opacity: 1;"  transform=" translate(-360.75, -230)" d="M 374.5 250.75 C 372.6434333110973 250.75013395342222 370.8628578714517 250.01272392286194 369.55 248.7 L 342.05 221.2 C 339.31619048833755 218.46619048833756 339.31619048833755 214.0338095116624 342.05 211.3 C 344.7838095116624 208.56619048833755 349.2161904883376 208.56619048833755 351.95 211.29999999999998 L 379.45 238.79999999999998 C 381.45219909491453 240.80199478456538 382.0511882141643 243.81299810934559 380.9676335173262 246.42885237746984 C 379.8840788204881 249.04470664559406 377.33139264168074 250.75020430297823 374.5 250.74999999999997 Z" stroke-linecap="round" />
</g>
		<g transform="matrix(1 0 0 1 56.25 0)"  >
<path style="stroke: rgb(76,154,42); stroke-width: 1; stroke-dasharray: none; stroke-linecap: butt; stroke-dashoffset: 0; stroke-linejoin: miter; stroke-miterlimit: 4; fill: rgb(76,154,42); fill-rule: nonzero; opacity: 1;"  transform=" translate(-361.25, -230)" d="M 347.5 250.75 C 344.66860735831926 250.75020430297826 342.1159211795119 249.0447066455941 341.0323664826738 246.42885237746987 C 339.94881178583574 243.8129981093456 340.54780090508547 240.8019947845654 342.55 238.8 L 370.05 211.3 C 372.7838095116624 208.56619048833758 377.2161904883376 208.56619048833758 379.95 211.3 C 382.68380951166245 214.03380951166244 382.68380951166245 218.4661904883376 379.95 221.20000000000002 L 352.45 248.70000000000002 C 351.13714212854825 250.01272392286194 349.3565666889027 250.75013395342222 347.5 250.75 Z" stroke-linecap="round" />
</g>
</g>
</g>
<g transform="matrix(1 0 0 1 261.5 314.5)"  >
<path style="stroke: rgb(76,154,42); stroke-width: 1; stroke-dasharray: none; stroke-linecap: butt; stroke-dashoffset: 0; stroke-linejoin: miter; stroke-miterlimit: 4; fill: rgb(76,154,42); fill-rule: nonzero; opacity: 1;"  transform=" translate(-261.5, -294.5)" d="M 322 319 L 205 319 C 198.92486775186129 319 194 314.07513224813874 194 308 C 194 287.0131795064299 211.01317950642985 270 232 270 L 322 270 C 325.8659932488155 270 329 273.1340067511844 329 277 L 329 312 C 329 315.8659932488155 325.8659932488155 319 322 319 Z M 208.19 305 L 315 305 L 315 284 L 232 284 C 219.9058080316566 284.00088781837235 209.7017739675295 293.0006658673715 208.19 305 Z" stroke-linecap="round" />
</g>
</svg>